# Blender 3.5.1
# www.blender.org
mtllib PlayerLeftArm.mtl
o 立方体.001
v 2.965467 0.252470 0.006814
v 2.249131 2.160847 0.558231
v 1.579202 1.746897 0.558231
v 2.249131 2.160847 -0.544604
v 1.579202 1.746897 -0.544604
vn 0.1397 -0.2261 0.9640
vn -0.7331 -0.6801 -0.0000
vn 0.1397 -0.2261 -0.9640
vn 0.9362 0.3514 -0.0000
vn -0.5256 0.8507 -0.0000
vt 0.375000 0.000000
vt 0.375000 0.250000
vt 0.375000 0.500000
vt 0.375000 0.750000
vt 0.625000 0.000000
vt 0.625000 1.000000
vt 0.875000 0.750000
vt 0.625000 0.250000
vt 0.875000 0.500000
vt 0.625000 0.750000
vt 0.625000 0.500000
s 0
usemtl Material.003
f 1/1/1 2/5/1 3/8/1
f 1/2/2 3/8/2 5/11/2
f 1/3/3 5/11/3 4/10/3
f 1/4/4 4/10/4 2/6/4
f 3/9/5 4/10/5 5/11/5
f 3/9/5 2/7/5 4/10/5
